#N canvas 588 119 720 485 12;
#X obj 295 143 adc~;
#X obj 287 206 *~;
#X obj 299 265 dac~;
#X obj 377 179 tgl 50 0 start start_rcv sound_on/off 17 7 0 10 -262144
-1 -1 0 1;
#X connect 0 0 1 0;
#X connect 1 0 2 0;
#X connect 1 0 2 1;
#X connect 3 0 1 1;
